<svg width="1180" height="681" viewBox="0 0 1180 681" fill="none" xmlns="http://www.w3.org/2000/svg">
<g clip-path="url(#clip0_471_14846)">
<path d="M444.342 218.376H477.223M689.341 92.8255V-109.68M689.341 405.787V797.138M1077.06 218.376H1224.25M1058.56 360.948V-109.68M1058.21 405.787V585.141M-51.0117 -90.7635H689.341H845.224M892.164 -90.7635H1058.21H1224.25M689.341 355.253V337.122" stroke="#2D2D2D" stroke-width="0.614583"/>
<path d="M374.711 0.330078H7.98958C3.57706 0.330078 0 3.90714 0 8.31966V672.341C0 676.753 3.57704 680.33 7.98956 680.33H607.143C609.59 680.33 611.902 679.209 613.417 677.288L645.55 636.54C647.065 634.619 649.377 633.498 651.824 633.498H914.993C919.405 633.498 922.982 637.075 922.982 641.488V672.341C922.982 676.753 926.559 680.33 930.972 680.33H1054.33C1057.05 680.33 1059.59 678.944 1061.05 676.653L1178.74 493.1C1179.56 491.813 1180 490.316 1180 488.788V66.8596C1180 62.4471 1176.42 58.87 1172.01 58.87H439.879C437.76 58.87 435.728 58.0285 434.23 56.5304L380.36 2.66971C378.862 1.17165 376.83 0.330078 374.711 0.330078Z" fill="#CCFE00"/>
<path d="M57.6211 204.75V344.638" stroke="black" stroke-width="1.47251"/>
<path d="M243.826 93.887H231.309M218.793 93.887H231.309M231.309 93.887V105.357M231.309 93.887V81.7969" stroke="black" stroke-width="1.47251"/>
<path d="M1072.18 93.887H1059.66M1047.14 93.887H1059.66M1059.66 93.887V105.357M1059.66 93.887V81.7969" stroke="black" stroke-width="1.47251"/>
<path d="M243.826 381.17H231.309M218.793 381.17H231.309M231.309 381.17V392.64M231.309 381.17V369.08" stroke="black" stroke-width="1.47251"/>
<path d="M1072.18 381.17H1059.66M1047.14 381.17H1059.66M1059.66 381.17V392.64M1059.66 381.17V369.08" stroke="black" stroke-width="1.47251"/>
<ellipse cx="58.3517" cy="86.9552" rx="18.4064" ry="18.4064" fill="black"/>
<ellipse cx="58.3517" cy="377.041" rx="18.4064" ry="18.4064" fill="black"/>
<path d="M39.9453 105.363L76.758 125.242V148.802L39.9453 128.923V105.363Z" fill="black"/>
<path d="M39.9453 133.34L76.758 153.219V176.779L39.9453 156.9V133.34Z" fill="black"/>
<path d="M39.9453 161.316L76.758 181.195V204.755L39.9453 184.877V161.316Z" fill="black"/>
<path d="M414.844 0.330078H1074.29L1121 31.6738H461.552L414.844 0.330078Z" fill="#CCFE00"/>
</g>
<defs>
<clipPath id="clip0_471_14846">
<rect width="1180" height="680" fill="white" transform="translate(0 0.330078)"/>
</clipPath>
</defs>
</svg>
