<svg width="1440" height="347" viewBox="0 0 1440 347" fill="none" xmlns="http://www.w3.org/2000/svg">
<g opacity="0.3" filter="url(#filter0_f_212_6497)">
<path d="M1177.24 190.5L1101.35 190.5L1072.38 343.559L1177.24 343.559C1215.01 343.558 1245.62 312.94 1245.62 275.17L1245.62 258.889C1245.62 221.119 1215.01 190.5 1177.24 190.5Z" stroke="#CBFD02"/>
<path d="M819.977 190.5L744.09 190.5L715.125 343.559L819.977 343.559C857.746 343.558 888.365 312.94 888.365 275.17L888.365 258.889C888.365 221.119 857.747 190.5 819.977 190.5Z" stroke="#CBFD02"/>
<path d="M462.715 190.5L386.828 190.5L357.863 343.559L462.715 343.559C500.485 343.558 531.103 312.94 531.104 275.17L531.104 258.889C531.103 221.119 500.485 190.5 462.715 190.5Z" stroke="#CBFD02"/>
<path d="M105.455 190.5L29.5684 190.5L0.603508 343.559L105.455 343.559C143.225 343.558 173.844 312.94 173.844 275.17L173.844 258.889C173.844 221.119 143.225 190.5 105.455 190.5Z" stroke="#CBFD02"/>
<path d="M977.285 343.559L1053.17 343.559L1082.14 190.5L977.285 190.5C939.515 190.5 908.897 221.119 908.896 258.889L908.896 275.17C908.897 312.94 939.515 343.558 977.285 343.559Z" stroke="#CBFD02"/>
<path d="M1334.54 343.559L1410.43 343.559L1439.4 190.5L1334.54 190.5C1296.78 190.5 1266.16 221.119 1266.16 258.889L1266.16 275.17C1266.16 312.94 1296.77 343.558 1334.54 343.559Z" stroke="#CBFD02"/>
<path d="M620.023 343.559L695.91 343.559L724.875 190.5L620.023 190.5C582.254 190.5 551.635 221.119 551.635 258.889L551.635 275.17C551.635 312.94 582.253 343.558 620.023 343.559Z" stroke="#CBFD02"/>
<path d="M262.764 343.559L338.65 343.559L367.615 190.5L262.764 190.5C224.994 190.5 194.375 221.119 194.375 258.889L194.375 275.17C194.375 312.94 224.994 343.558 262.764 343.559Z" stroke="#CBFD02"/>
<path d="M1308.4 2.49999L1232.52 2.49998L1203.55 155.559L1308.4 155.559C1346.17 155.558 1376.79 124.94 1376.79 87.1699L1376.79 70.8887C1376.79 33.1187 1346.17 2.5001 1308.4 2.49999Z" stroke="#CBFD02"/>
<path d="M236.623 2.49999L160.736 2.49998L131.771 155.559L236.623 155.559C274.393 155.558 305.011 124.94 305.012 87.1699L305.012 70.8887C305.012 33.1187 274.393 2.5001 236.623 2.49999Z" stroke="#CBFD02"/>
<path d="M951.145 2.49999L875.258 2.49998L846.293 155.559L951.145 155.559C988.914 155.558 1019.53 124.94 1019.53 87.1699L1019.53 70.8887C1019.53 33.1187 988.915 2.5001 951.145 2.49999Z" stroke="#CBFD02"/>
<path d="M593.883 2.49999L517.996 2.49998L489.031 155.559L593.883 155.559C631.653 155.558 662.271 124.94 662.271 87.1699L662.271 70.8887C662.271 33.1187 631.653 2.5001 593.883 2.49999Z" stroke="#CBFD02"/>
<path d="M1108.45 155.559L1184.34 155.559L1213.3 2.50003L1108.45 2.50001C1070.68 2.50013 1040.06 33.1188 1040.06 70.8887L1040.06 87.1699C1040.06 124.94 1070.68 155.558 1108.45 155.559Z" stroke="#CBFD02"/>
<path d="M751.191 155.559L827.078 155.559L856.043 2.50003L751.191 2.50001C713.422 2.50013 682.803 33.1188 682.803 70.8887L682.803 87.1699C682.803 124.94 713.421 155.558 751.191 155.559Z" stroke="#CBFD02"/>
<path d="M393.932 155.559L469.818 155.559L498.783 2.50003L393.932 2.50001C356.162 2.50013 325.543 33.1188 325.543 70.8887L325.543 87.1699C325.543 124.94 356.162 155.558 393.932 155.559Z" stroke="#CBFD02"/>
</g>
<defs>
<filter id="filter0_f_212_6497" x="-2" y="0" width="1444" height="346.059" filterUnits="userSpaceOnUse" color-interpolation-filters="sRGB">
<feFlood flood-opacity="0" result="BackgroundImageFix"/>
<feBlend mode="normal" in="SourceGraphic" in2="BackgroundImageFix" result="shape"/>
<feGaussianBlur stdDeviation="1" result="effect1_foregroundBlur_212_6497"/>
</filter>
</defs>
</svg>
