<svg width="99" height="53" viewBox="0 0 99 53" fill="none" xmlns="http://www.w3.org/2000/svg">
<rect width="99" height="29" fill="#CCFE00"/>
<path d="M8.08825 19.36H10.8242V7.84H8.52025V10.744H5.88025V5.2H19.0322V10.744H16.3922V7.84H14.1122V19.36H16.8242V22H8.08825V19.36ZM30.2069 5.2H33.3269V15.952C33.3269 17.04 33.1829 17.984 32.8949 18.784C32.6069 19.568 32.1989 20.224 31.6709 20.752C31.1589 21.264 30.5429 21.648 29.8229 21.904C29.1029 22.16 28.3109 22.288 27.4469 22.288C25.3669 22.288 23.8229 21.784 22.8149 20.776C21.8229 19.768 21.3269 18.296 21.3269 16.36V5.2H24.6149V15.712C24.6149 16.992 24.8469 17.92 25.3109 18.496C25.7749 19.072 26.5029 19.36 27.4949 19.36C28.4549 19.36 29.1429 19.056 29.5589 18.448C29.9909 17.824 30.2069 16.912 30.2069 15.712V5.2ZM36.4855 5.368C36.8535 5.304 37.2455 5.248 37.6615 5.2C38.0935 5.136 38.5175 5.088 38.9335 5.056C39.3655 5.024 39.7815 5 40.1815 4.984C40.5815 4.968 40.9495 4.96 41.2855 4.96C42.0695 4.96 42.8375 5.04 43.5895 5.2C44.3575 5.344 45.0375 5.6 45.6295 5.968C46.2375 6.336 46.7175 6.832 47.0695 7.456C47.4375 8.08 47.6215 8.856 47.6215 9.784C47.6215 10.472 47.5495 11.072 47.4055 11.584C47.2775 12.08 47.0935 12.52 46.8535 12.904C46.6135 13.288 46.3175 13.624 45.9655 13.912C45.6295 14.184 45.2615 14.432 44.8615 14.656L48.9175 22H45.1255L41.7415 15.424H39.7735V22H36.4855V5.368ZM41.5255 7.888C41.1895 7.888 40.8535 7.896 40.5175 7.912C40.1975 7.928 39.9495 7.96 39.7735 8.008V12.88H41.0695C41.9815 12.88 42.7255 12.672 43.3015 12.256C43.8775 11.84 44.1655 11.152 44.1655 10.192C44.1655 9.472 43.9415 8.912 43.4935 8.512C43.0455 8.096 42.3895 7.888 41.5255 7.888ZM51.1641 19.072H55.4121V8.128H51.1641V5.2H62.9721V8.128H58.7001V19.072H62.9721V22H51.1641V19.072ZM69.1787 12.064H69.0587L69.2027 14.056V22H66.0827V5.2H68.9627L74.7707 15.472H74.8907L74.6747 13.456V5.2H77.7947V22H74.9147L69.1787 12.064ZM87.3614 13.24H93.0974V20.824C92.5534 21.32 91.8414 21.696 90.9614 21.952C90.0974 22.208 89.2094 22.336 88.2974 22.336C87.2254 22.336 86.2174 22.152 85.2734 21.784C84.3454 21.416 83.5374 20.864 82.8494 20.128C82.1614 19.376 81.6174 18.456 81.2174 17.368C80.8174 16.264 80.6174 14.976 80.6174 13.504C80.6174 11.952 80.8574 10.632 81.3374 9.544C81.8174 8.456 82.4334 7.568 83.1854 6.88C83.9534 6.176 84.8094 5.664 85.7534 5.344C86.6974 5.024 87.6334 4.864 88.5614 4.864C89.5214 4.864 90.3214 4.944 90.9614 5.104C91.6014 5.248 92.1854 5.44 92.7134 5.68V10.648H90.0734V7.984C89.9454 7.952 89.8174 7.92 89.6894 7.888C89.3694 7.824 89.0174 7.792 88.6334 7.792C87.9774 7.792 87.3694 7.904 86.8094 8.128C86.2494 8.352 85.7614 8.704 85.3454 9.184C84.9454 9.648 84.6334 10.248 84.4094 10.984C84.1854 11.72 84.0734 12.6 84.0734 13.624C84.0734 14.536 84.1854 15.352 84.4094 16.072C84.6334 16.792 84.9454 17.4 85.3454 17.896C85.7454 18.392 86.2174 18.768 86.7614 19.024C87.3214 19.28 87.9214 19.408 88.5614 19.408C88.9774 19.408 89.3534 19.36 89.6894 19.264C90.0414 19.168 90.2814 19.072 90.4094 18.976V15.64H87.3614V13.24Z" fill="#121212"/>
<rect width="70" height="29" transform="translate(0 24)" fill="#CCFE00"/>
<path d="M8.8295 43.36H11.5655V31.84H9.2615V34.744H6.6215V29.2H19.7735V34.744H17.1335V31.84H14.8535V43.36H17.5655V46H8.8295V43.36ZM22.5481 29.2H33.5641V32.128H25.8361V36.04H32.9641V38.968H25.8361V43.072H33.6841V46H22.5481V29.2ZM45.3388 42.28H40.3228L39.1708 46H35.8828L41.3068 29.2H44.5948L49.9948 46H46.5388L45.3388 42.28ZM41.0908 39.64H44.6908L42.9868 34.024H42.7708L41.0908 39.64ZM60.7614 37.048L60.8814 34.432H60.7374L58.0494 38.824H57.4734L54.6654 34.432H54.5454L54.6894 36.784V46H51.5694V29.2H54.9054L57.7854 33.856H57.8814L60.7374 29.2H64.0494V46H60.7614V37.048Z" fill="#121212"/>
</svg>
