<svg width="50" height="50" viewBox="0 0 50 50" fill="none" xmlns="http://www.w3.org/2000/svg">
<path d="M50 25C50 11.1929 38.8071 0 25 0C11.1929 0 0 11.1929 0 25C0 38.8071 11.1929 50 25 50C38.8071 50 50 38.8071 50 25Z" fill="#CCFE00"/>
<path d="M36.672 14H34.1113C33.122 14 32.2122 14.5516 31.7414 15.4365L30.2693 18.2024C29.8164 19.053 28.9423 19.5823 27.9917 19.5823H15.0523C14.063 19.5823 13.1531 20.1339 12.6823 21.0188L11.6533 22.9523C10.2309 25.6243 11.2083 27.7912 13.8365 27.7912H17.1501L14.9182 31.9845C13.9537 33.7968 15.244 36 17.2703 36H19.2588C20.2412 36 21.1441 35.4525 21.6109 34.5746L27.4564 23.5898C27.9093 22.7392 28.7834 22.2098 29.734 22.2098H34.603C35.5923 22.2098 36.5022 21.6583 36.973 20.7733L38.4639 17.9731C39.631 15.78 38.8294 14.001 36.672 14.001V14Z" fill="#121212"/>
</svg>
