<svg width="694" height="780" viewBox="0 0 694 780" fill="none" xmlns="http://www.w3.org/2000/svg">
<g clip-path="url(#clip0_212_6454)">
<g clip-path="url(#clip1_212_6454)">
<g clip-path="url(#clip2_212_6454)">
<path d="M884.371 778.066H442.858C431.809 778.066 420.795 778.066 409.781 778.066C365.27 778.193 322.576 778.193 280.758 778.066C270.407 778.066 260.198 778.066 250.163 778.066H1.38086" stroke="black" stroke-opacity="0.1" stroke-width="0.551738" stroke-miterlimit="10"/>
<path d="M884.371 736.04H508.874C497.93 736.04 486.95 736.04 475.972 736.04C392.473 739.582 310.932 739.582 224.218 736.072C215.686 736.04 207.329 736.04 199.113 736.04H1.38086" stroke="black" stroke-opacity="0.1" stroke-width="0.551738" stroke-miterlimit="10"/>
<path d="M884.371 694.012H541.462C530.657 693.98 519.783 693.948 508.804 693.854C404.116 693.948 295.407 700.969 192.119 694.107C182.818 694.012 173.762 694.012 164.95 694.012H1.3457" stroke="black" stroke-opacity="0.1" stroke-width="0.551738" stroke-miterlimit="10"/>
<path d="M884.371 651.985H573.525C562.652 651.985 551.812 651.701 541.007 651.258C415.725 651.796 287.61 655.306 165.125 652.112C148.866 651.954 133.516 651.954 119.18 651.954H1.31055" stroke="black" stroke-opacity="0.1" stroke-width="0.551738" stroke-miterlimit="10"/>
<path d="M884.371 609.927H573.525C564.54 610.875 555.658 611.254 546.882 611.159C485.621 609.642 431.25 599.111 369.15 592.091C291.491 581.561 217.749 602.622 139.321 609.927C122.747 609.927 107.292 609.927 93.1658 609.927H1.3457" stroke="black" stroke-opacity="0.1" stroke-width="0.551738" stroke-miterlimit="10"/>
<path d="M884.371 567.9L573.525 567.899C564.54 568.532 555.658 568.595 546.882 568.216C538.105 567.836 529.364 567.046 520.832 566.224C431.285 564.01 353.626 518.346 268.205 514.836C221.63 514.836 186.664 549.938 143.482 564.231C135.649 566.729 127.642 568.5 119.285 569.227C110.964 569.924 102.292 569.607 93.1658 567.899H1.3457" stroke="black" stroke-opacity="0.1" stroke-width="0.551738" stroke-miterlimit="10"/>
<path d="M884.371 525.871H573.525C560.798 526.378 548.385 526.124 536.147 525.239C523.91 524.385 511.881 522.993 500.203 521.666C442.894 518.346 392.438 497.285 341.948 476.223C260.407 444.631 190.545 486.753 122.187 520.18C111.802 523.658 101.103 526.219 89.9488 527.326C78.7948 528.432 67.1861 528.117 54.948 525.871H1.31055" stroke="black" stroke-opacity="0.1" stroke-width="0.551738" stroke-miterlimit="10"/>
<path d="M884.371 483.845H573.525C562.93 483.845 552.231 483.845 541.427 483.845C528.7 481.441 516.006 479.228 503.384 477.204C396.284 465.724 287.575 420.06 179.671 446.877C167.782 449.818 155.929 453.677 144.146 458.514C132.362 463.353 120.649 469.235 108.97 476.255C89.5639 486.785 74.0391 483.275 54.843 483.813C38.0244 483.877 24.5976 483.877 15.4365 483.877H1.27539" stroke="black" stroke-opacity="0.1" stroke-width="0.551738" stroke-miterlimit="10"/>
<path d="M884.371 441.817H508.874C497.929 441.817 486.916 441.785 475.341 441.185C392.438 416.519 307.017 409.499 222.504 414.431C208.517 415.538 194.532 416.992 180.545 418.732C138.587 423.982 96.6974 432.014 54.8083 441.658C38.0948 441.817 24.6679 441.817 15.5068 441.817H1.3457" stroke="black" stroke-opacity="0.1" stroke-width="0.551738" stroke-miterlimit="10"/>
<path d="M884.371 399.758H475.936C464.922 399.758 453.873 399.758 442.613 399.537C361.389 388.406 283.729 370.855 198.343 381.385C147.887 388.406 105.159 402.446 54.9133 399.695C43.7242 399.758 34.0037 399.758 26.0665 399.758H1.3457" stroke="black" stroke-opacity="0.1" stroke-width="0.551738" stroke-miterlimit="10"/>
<path d="M884.371 357.732H785.348C773.215 357.732 760.208 357.732 746.466 357.732C737.27 357.574 728.004 357.447 718.669 357.352C709.332 357.257 699.962 357.194 690.557 357.162C644.751 356.845 598.142 356.846 552.336 357.732C543.351 357.732 534.294 357.732 525.168 357.732H442.824C431.774 357.732 420.76 357.732 409.676 357.7C299.254 346.315 190.545 349.825 82.5361 357.51C65.9974 357.732 51.3467 357.732 39.2835 357.732H1.3457" stroke="black" stroke-opacity="0.1" stroke-width="0.551738" stroke-miterlimit="10"/>
<path d="M884.371 315.705H830.733C817.203 315.578 803.705 315.515 790.279 315.515C671.989 321.713 559.4 314.693 442.858 315.705H401.529C387.787 315.705 374.081 315.705 360.444 315.673C279.848 314.693 194.461 314.693 112.677 315.61C95.8232 315.705 80.4033 315.705 66.7666 315.705H1.3457" stroke="black" stroke-opacity="0.1" stroke-width="0.551738" stroke-miterlimit="10"/>
<path d="M884.371 273.677C884.371 273.677 870.56 273.677 846.679 273.646C834.65 273.899 822.657 274.215 810.733 274.784C675.835 297.173 543.839 279.59 409.746 273.677H318.52C308.939 273.677 299.464 273.677 290.058 273.677C248.763 272.57 202.189 272.57 159.671 273.677H1.31055" stroke="black" stroke-opacity="0.1" stroke-width="0.551738" stroke-miterlimit="10"/>
<path d="M884.371 231.65C884.371 231.65 875.525 231.65 859.861 231.619C846.119 232.567 832.412 233.706 818.846 235.508C687.479 276.08 547.72 262.04 410.306 231.84C398.767 231.682 387.753 231.65 376.843 231.65H1.3457" stroke="black" stroke-opacity="0.1" stroke-width="0.551738" stroke-miterlimit="10"/>
<path d="M884.371 189.623C884.371 189.623 875.524 189.623 859.93 189.591C848.007 188.199 836.503 188.294 825.349 189.844C780.663 198.856 745.731 226.938 699.123 237.468C598.177 258.529 512.755 209.387 415.341 196.77C401.948 194.682 389.256 192.311 376.809 189.623C365.864 189.623 354.99 189.623 344.22 189.623H1.31055" stroke="black" stroke-opacity="0.1" stroke-width="0.551738" stroke-miterlimit="10"/>
<path d="M884.371 147.564C884.371 147.564 875.525 147.564 859.721 147.564C851.608 147.216 843.322 146.741 835.14 146.552C780.663 139.152 757.375 191.804 710.767 205.845C671.954 219.885 629.227 212.865 590.414 202.335C532.162 184.784 477.824 163.723 415.096 156.355C401.878 153.794 389.325 150.979 376.913 148.006C365.899 147.596 355.025 147.596 344.255 147.564H1.3457" stroke="black" stroke-opacity="0.1" stroke-width="0.551738" stroke-miterlimit="10"/>
<path d="M884.371 105.537H859.65C851.714 105.537 841.993 105.537 830.838 105.537C807.866 111.039 776.816 100.478 761.292 118.059C664.227 219.886 528.35 128.59 414.117 115.91C401.704 112.968 389.325 109.68 376.913 106.012C365.934 105.569 355.059 105.569 344.255 105.537H1.3457" stroke="black" stroke-opacity="0.1" stroke-width="0.551738" stroke-miterlimit="10"/>
<path d="M884.371 63.5099L830.733 63.5098C819.475 63.5098 806.678 63.5099 792.551 63.6363C780.663 65.4072 769.019 61.8655 761.256 65.4072C664.192 135.642 555.483 93.4884 451.845 77.8983C438.977 75.748 426.495 73.5343 414.011 71.0994C401.669 68.8224 389.256 66.3558 376.843 63.7311C365.899 63.573 355.059 63.5414 344.255 63.5098H1.3457" stroke="black" stroke-opacity="0.1" stroke-width="0.551738" stroke-miterlimit="10"/>
<path d="M884.371 21.4825H792.551C778.425 21.4825 762.97 21.4825 746.397 21.4825C734.194 24.3286 721.921 26.732 709.648 28.8191C648.668 37.2941 586.569 40.8043 524.608 34.5429C512.126 33.8155 499.783 32.9617 487.475 32.0447C475.272 31.0959 463.104 30.1156 451.041 29.072C438.733 28.1234 426.39 27.0166 414.047 25.7517C401.704 24.4867 389.291 23.0637 376.878 21.4825C365.934 21.4825 355.095 21.4825 344.29 21.4825L1.38086 21.4824" stroke="black" stroke-opacity="0.1" stroke-width="0.551738" stroke-miterlimit="10"/>
<path d="M651.989 -19.6914C651.569 -9.91985 651.99 -0.338039 653.143 9.08575C664.192 82.9575 722.445 149.65 710.801 230.416C703.04 283.1 648.667 318.202 652.024 374.998C652.024 383.725 652.024 392.486 652.024 401.182V778.066" stroke="black" stroke-opacity="0.1" stroke-width="0.551738" stroke-miterlimit="10"/>
<path d="M605.624 -17.6992C605.694 -5.58749 607.023 6.23945 609.576 18.0033C652.549 121.601 718.529 230.448 617.583 332.274C605.939 339.295 602.058 356.845 605.484 375.029V778.066" stroke="black" stroke-opacity="0.1" stroke-width="0.551738" stroke-miterlimit="10"/>
<path d="M559.225 -16.7188C561.953 -4.2908 564.715 8.07376 567.862 20.3752C613.737 128.621 648.703 247.999 559.925 348.782C559.225 358.774 559.051 368.767 559.051 378.761V525.397C559.401 567.52 559.401 609.673 559.051 653.313V778.067" stroke="black" stroke-opacity="0.1" stroke-width="0.551738" stroke-miterlimit="10"/>
<path d="M512.65 -17.793C514.223 -6.66166 515.692 4.46977 517.091 15.6327C519.084 26.7324 520.972 37.8638 523.315 48.9636C571.008 149.683 547.72 251.51 512.93 348.814C512.545 361.907 512.545 375.031 512.545 388.122V453.234C512.09 464.018 511.74 474.801 511.497 485.617C511.252 496.432 511.111 507.278 511.076 518.252C512.755 585.072 512.755 648.287 512.545 713.271V778.067" stroke="black" stroke-opacity="0.1" stroke-width="0.551738" stroke-miterlimit="10"/>
<path d="M466.075 -19.6914C466.46 -8.37032 466.81 2.95079 467.055 14.2402C467.369 25.6246 467.614 36.9773 467.894 48.4249C493.384 135.642 477.859 226.938 466.355 319.056C466.075 328.954 466.075 338.884 466.075 348.845V401.213C464.817 409.024 463.732 416.708 462.823 424.33C461.949 431.919 461.215 439.445 460.621 446.94C450.655 553.478 466.18 655.305 466.075 760.8V778.067" stroke="black" stroke-opacity="0.1" stroke-width="0.551738" stroke-miterlimit="10"/>
<path d="M419.606 -20.5449C419.606 3.58351 419.606 27.3642 419.606 50.9551C419.606 62.7506 419.606 74.4827 419.606 86.1833C419.606 97.8843 419.711 109.553 419.991 121.159C423.488 177.733 419.606 233.926 419.572 289.551V338.157C419.572 346.315 419.572 354.506 419.572 362.696C414.711 373.385 410.726 384.137 407.474 394.984C384.64 521.856 423.453 651.764 419.572 778.067" stroke="black" stroke-opacity="0.1" stroke-width="0.551738" stroke-miterlimit="10"/>
<path d="M373.136 -20.5449V62.5291C373.032 100.54 373.032 139.152 373.136 177.701C373.136 186.46 373.136 195.378 373.136 204.485V290.975C373.136 300.905 373.136 310.898 373.136 320.922C373.102 337.145 372.088 353.146 368.207 367.725C364.325 382.303 357.507 395.489 345.934 406.052C330.339 423.571 318.695 444.632 318.695 469.203C326.457 574.54 388.592 669.347 373.172 778.099" stroke="black" stroke-opacity="0.1" stroke-width="0.551738" stroke-miterlimit="10"/>
<path d="M326.666 -20.5449V264.886C326.666 273.044 326.666 281.298 326.666 289.583C332.365 316.178 324.568 340.022 312.89 362.475C309.009 369.969 304.673 377.274 300.303 384.516C272.12 420.03 260.476 462.182 268.239 507.815C291.526 602.622 342.016 683.387 326.701 778.099" stroke="black" stroke-opacity="0.1" stroke-width="0.551738" stroke-miterlimit="10"/>
<path d="M280.198 -20.5449V240.599C280.198 248.631 280.198 256.727 280.198 264.886C287.75 312.131 264.357 351.312 244.497 391.947C239.532 402.099 234.812 412.345 230.895 422.843C221.63 444.632 217.749 469.235 221.63 490.296C252.679 588.612 295.407 676.398 280.198 778.099" stroke="black" stroke-opacity="0.1" stroke-width="0.551738" stroke-miterlimit="10"/>
<path d="M233.694 -20.5449V240.599C233.694 248.631 233.694 256.727 233.694 264.885C239.778 315.198 216.526 360.135 201.875 408.266C198.937 417.879 196.35 427.65 194.427 437.581C190.545 535.897 244.883 630.703 233.763 729.747C233.694 744.831 233.694 756.943 233.694 765.26V778.067" stroke="black" stroke-opacity="0.1" stroke-width="0.551738" stroke-miterlimit="10"/>
<path d="M187.224 -20.5449V266.341C179.182 330.915 171.28 394.794 169.321 458.957C169.007 471.765 168.902 484.604 169.147 497.506C171.105 564.009 186.63 627.224 187.26 695.056C187.26 707.8 187.26 719.374 187.224 729.589V778.067" stroke="black" stroke-opacity="0.1" stroke-width="0.551738" stroke-miterlimit="10"/>
<path d="M140.753 -20.5449V264.885C140.753 274.026 140.753 283.227 140.753 292.493C134.88 367.029 133.096 439.288 135.473 511.863C135.823 522.236 136.242 532.607 136.768 542.98C140.124 570.999 140.124 602.622 140.789 630.071C140.789 644.68 140.789 658.5 140.789 671.434V778.067" stroke="black" stroke-opacity="0.1" stroke-width="0.551738" stroke-miterlimit="10"/>
<path d="M94.2838 -20.5449V304.288C94.2838 312.89 94.2838 321.524 94.214 330.156C93.5146 402.51 89.6335 479.765 94.214 553.005C94.2838 561.037 94.2838 568.88 94.2838 576.564V778.067" stroke="black" stroke-opacity="0.1" stroke-width="0.551738" stroke-miterlimit="10"/>
<path d="M47.8147 -20.5449V378.761C46.9055 416.519 46.9055 458.672 47.8147 496.969C47.8147 506.55 47.8147 516.038 47.8147 525.397V778.067" stroke="black" stroke-opacity="0.1" stroke-width="0.551738" stroke-miterlimit="10"/>
<path d="M1.3457 -20.5449V778.067" stroke="black" stroke-opacity="0.1" stroke-width="0.551738" stroke-miterlimit="10"/>
</g>
</g>
</g>
<defs>
<clipPath id="clip0_212_6454">
<rect width="885" height="800.02" fill="white" transform="translate(0 -21)"/>
</clipPath>
<clipPath id="clip1_212_6454">
<rect width="885" height="800.02" fill="white" transform="translate(0 -21)"/>
</clipPath>
<clipPath id="clip2_212_6454">
<rect width="884.988" height="800.02" fill="white" transform="translate(0.00585938 -21)"/>
</clipPath>
</defs>
</svg>
